<?xml version="1.0" encoding="UTF-8" standalone="no"?>
<!-- Created with Inkscape (http://www.inkscape.org/) -->

<svg
   xmlns:dc="http://purl.org/dc/elements/1.1/"
   xmlns:cc="http://creativecommons.org/ns#"
   xmlns:rdf="http://www.w3.org/1999/02/22-rdf-syntax-ns#"
   xmlns:svg="http://www.w3.org/2000/svg"
   xmlns="http://www.w3.org/2000/svg"
   xmlns:sodipodi="http://sodipodi.sourceforge.net/DTD/sodipodi-0.dtd"
   xmlns:inkscape="http://www.inkscape.org/namespaces/inkscape"
   width="1278.9449"
   height="236.52785"
   id="svg2"
   sodipodi:version="0.32"
   inkscape:version="0.47pre4 r22446"
   sodipodi:docname="logo2.svg"
   inkscape:output_extension="org.inkscape.output.svg.inkscape"
   version="1.0">
  <defs
     id="defs4">
    <inkscape:perspective
       sodipodi:type="inkscape:persp3d"
       inkscape:vp_x="0 : 526.18109 : 1"
       inkscape:vp_y="0 : 1000 : 0"
       inkscape:vp_z="744.09448 : 526.18109 : 1"
       inkscape:persp3d-origin="372.04724 : 350.78739 : 1"
       id="perspective10" />
    <inkscape:perspective
       id="perspective3629"
       inkscape:persp3d-origin="0.5 : 0.33333333 : 1"
       inkscape:vp_z="1 : 0.5 : 1"
       inkscape:vp_y="0 : 1000 : 0"
       inkscape:vp_x="0 : 0.5 : 1"
       sodipodi:type="inkscape:persp3d" />
    <inkscape:perspective
       id="perspective3814"
       inkscape:persp3d-origin="0.5 : 0.33333333 : 1"
       inkscape:vp_z="1 : 0.5 : 1"
       inkscape:vp_y="0 : 1000 : 0"
       inkscape:vp_x="0 : 0.5 : 1"
       sodipodi:type="inkscape:persp3d" />
  </defs>
  <sodipodi:namedview
     id="base"
     pagecolor="#ffffff"
     bordercolor="#666666"
     borderopacity="1.0"
     gridtolerance="10000"
     guidetolerance="10"
     objecttolerance="10"
     inkscape:pageopacity="0.0"
     inkscape:pageshadow="2"
     inkscape:zoom="1.0239392"
     inkscape:cx="468.45663"
     inkscape:cy="60.788717"
     inkscape:document-units="px"
     inkscape:current-layer="layer1"
     showgrid="false"
     inkscape:window-width="1366"
     inkscape:window-height="744"
     inkscape:window-x="0"
     inkscape:window-y="1"
     units="cm"
     inkscape:window-maximized="1"
     showguides="true"
     inkscape:guide-bbox="true"
     showborder="false"
     inkscape:showpageshadow="false" />
  <metadata
     id="metadata7">
    <rdf:RDF>
      <cc:Work
         rdf:about="">
        <dc:format>image/svg+xml</dc:format>
        <dc:type
           rdf:resource="http://purl.org/dc/dcmitype/StillImage" />
      </cc:Work>
    </rdf:RDF>
  </metadata>
  <g
     inkscape:label="Layer 1"
     inkscape:groupmode="layer"
     id="layer1"
     transform="translate(-97.666904,-96.112987)">
    <path
       id="path3602"
       style="fill:#630000;stroke:none;stroke-width:0.94599999999999995;stroke-linecap:butt;stroke-linejoin:miter;stroke-miterlimit:4;stroke-opacity:1;stroke-dasharray:none;fill-opacity:1"
       d="m 273.8587,128.55478 -62.8125,75.5625 66.125,0 0,-1.375 c -1.7e-4,-0.18441 -0.0969,-1.9287 -0.28125,-5.25 -0.18468,-3.32109 -0.25017,-5.19337 -0.25,-5.5625 l 0,-17.4375 c -1.7e-4,-4.98167 -0.38712,-13.73435 -1.125,-26.28125 -0.5537,-8.67186 -1.10288,-15.22781 -1.65625,-19.65625 z m 19.9375,-20.75 c 2.76748,1.9e-4 4.86747,2.22817 6.34375,6.65625 l 84.15625,-3.625 c -2.58343,4.24394 -5.45733,10.05723 -8.59375,17.4375 -0.5538,1.29175 -1.36195,3.51973 -2.46875,6.65625 -0.18477,1.7e-4 -0.57173,-0.0966 -1.125,-0.28125 -0.36928,-0.18434 -0.62825,-0.28108 -0.8125,-0.28125 0.55327,-1.1069 0.81224,-2.20526 0.8125,-3.3125 -2.6e-4,-3.13652 -2.58395,-5.7202 -7.75,-7.75 -4.0595,-1.84493 -7.74155,-2.78107 -11.0625,-2.78125 -1.10731,1.8e-4 -1.84997,0.38714 -2.21875,1.125 -4.79753,-2.58297 -15.13226,-3.87482 -31,-3.875 -5.90456,1.8e-4 -9.68335,0.35589 -11.34375,1.09375 -1.47629,0.55372 -2.31569,3.23414 -2.5,8.03125 -0.18471,3.6904 -0.28145,7.37244 -0.28125,11.0625 -0.36922,9.77925 -1.08063,24.37646 -2.1875,43.75 -1.9e-4,13.1004 -0.0969,20.30227 -0.28125,21.59375 5.71965,0.92265 13.8264,1.3751 24.34375,1.375 17.34382,1e-4 33.78206,-2.68033 49.28125,-8.03125 0.73778,0.73815 1.09348,1.38407 1.09375,1.9375 -2.7e-4,0.36913 -1.29211,3.79221 -3.875,10.25 -2.95244,7.19602 -4.59999,11.52399 -4.96875,13 -0.92281,8e-5 -1.85895,-0.93606 -2.78125,-2.78125 -0.7383,-2.02954 -1.5777,-3.41812 -2.5,-4.15625 -6.08912,-3.87464 -20.29938,-5.81241 -42.625,-5.8125 -1.84532,9e-5 -7.46513,0.58053 -16.875,1.6875 -0.92275,1.47618 -1.37519,3.22047 -1.375,5.25 l 0,56.46875 c -1.9e-4,0.18454 0.0965,1.73535 0.28125,4.6875 0.18432,2.76769 0.28106,4.80219 0.28125,6.09375 -1.9e-4,3.50573 0.25877,6.54186 0.8125,9.125 9.22536,2.58316 21.69133,3.87501 37.375,3.875 l 11.625,0 c 5.7196,1e-5 13.92309,-1.09836 24.625,-3.3125 10.88588,-2.39863 17.79753,-4.62661 20.75,-6.65625 l 2.5,0.5625 0.28125,2.5 c -4.24404,3.1367 -8.02283,8.11059 -11.34375,14.9375 -2.76795,5.35082 -5.44837,10.71166 -8.03125,16.0625 -0.18478,-2.58317 -0.8307,-6.10299 -1.9375,-10.53125 -2.39891,-4.79729 -13.37957,-7.1875 -32.9375,-7.1875 l -77.78125,1.9375 c 1.29142,-2.02962 2.48652,-7.00351 3.59375,-14.9375 1.29141,-7.93396 1.93733,-14.58665 1.9375,-19.9375 l 1.9375,-32.65625 0,-27.40625 -67.53125,0 c -2.76776,9e-5 -8.1941,4.81176 -16.3125,14.40625 -4.42834,5.71992 -8.75631,11.33973 -13,16.875 -14.20742,17.3441 -22.79787,29.87556 -25.75,37.625 -2.95222,7.74949 -1.95059,12.85137 3.03125,15.25 6.27333,2.39865 12.6358,4.69212 19.09375,6.90625 l -38.1875,4.15625 c -2.76769,0 -7.45137,-0.38696 -14.09375,-1.125 -6.64241,-0.55353 -11.45407,-0.8125 -14.40625,-0.8125 12.73126,-7.38044 25.4562,-18.3611 38.1875,-32.9375 12.91573,-14.76085 34.58683,-40.85665 65.03125,-78.3125 33.5809,-41.51487 51.31098,-64.6058 53.15625,-69.21875 1.10691,-2.952 0.91343,-5.3422 -0.5625,-7.1875 -1.47624,-2.02943 -3.67297,-3.03106 -6.625,-3.03125 -0.36917,1.9e-4 -1.20857,0.0969 -2.5,0.28125 l -2.78125,0 c -0.9227,1.9e-4 -1.63411,-0.38676 -2.1875,-1.125 0.36888,-0.92236 1.66072,-1.56828 3.875,-1.9375 2.3985,-0.36883 4.49849,-0.6278 6.34375,-0.8125 l 31.84375,-0.84375 z M 98.139952,96.586035 l 0,233.874995 322.749998,0 0,-233.874995 -322.749998,0 z" />
    <path
       style="fill:#000000;stroke:#000000;stroke-width:0.94609523;stroke-linecap:butt;stroke-linejoin:miter;stroke-miterlimit:4;stroke-opacity:1;stroke-dasharray:none"
       d="m 683.6087,155.27353 c 0.0151,0.0758 -1.60572,0.42595 -4.875,1.03125 -3.59799,0.55368 -7.97358,0.8439 -13.09375,0.84375 0.27675,1.5e-4 -1.37079,1.5e-4 -4.96875,0 -3.18282,0.13853 -5.45992,0.18764 -6.84375,0.1875 3.73635,3.45973 5.67411,7.5451 5.8125,12.25 0.13838,4.56678 0.26786,9.07185 0.40625,13.5 0.27676,2.21425 0.40624,3.94216 0.40625,5.1875 0.13838,-0.13827 0.21874,15.36384 0.21875,46.5 l -0.84375,33.84375 -3.71875,35.0625 32.375,0 c 0.5535,-0.8303 0.84371,-1.37948 0.84375,-1.65625 -3.73638,-1.38383 -5.62503,-2.14286 -5.625,-2.28125 -1.24548,-1.52221 -2.00451,-3.66983 -2.28125,-6.4375 -0.27679,-2.21412 -0.53576,-4.41085 -0.8125,-6.625 l 0.40625,-66.4375 c 0.55351,-24.77052 1.94209,-46.42525 4.15625,-64.96875 l -1.5625,0 z"
       id="path3600" />
    <path
       style="fill:#000000;stroke:#000000;stroke-width:0.94609523;stroke-linecap:butt;stroke-linejoin:miter;stroke-miterlimit:4;stroke-opacity:1;stroke-dasharray:none"
       d="m 957.6712,155.27353 c 0.0151,0.0758 -1.60572,0.42595 -4.875,1.03125 -3.59799,0.55368 -7.97358,0.8439 -13.09375,0.84375 0.27675,1.5e-4 -1.37079,1.5e-4 -4.96875,0 -3.18282,0.13853 -5.45992,0.18764 -6.84375,0.1875 3.73635,3.45973 5.67411,7.5451 5.8125,12.25 0.13838,4.56678 0.26786,9.07185 0.40625,13.5 0.27676,2.21425 0.40624,3.94216 0.40625,5.1875 0.13838,-0.13827 0.21874,15.36384 0.21875,46.5 l -0.84375,33.84375 -3.71875,35.0625 32.375,0 c 0.5535,-0.8303 0.84371,-1.37948 0.84375,-1.65625 -3.73638,-1.38383 -5.62503,-2.14286 -5.625,-2.28125 -1.24548,-1.52221 -2.00451,-3.66983 -2.28125,-6.4375 -0.27679,-2.21412 -0.53576,-4.41085 -0.8125,-6.625 l 0.40625,-66.4375 c 0.55351,-24.77052 1.94209,-46.42525 4.15625,-64.96875 l -1.5625,0 z"
       id="path3598" />
    <path
       style="fill:#000000;stroke:#000000;stroke-width:0.94609523;stroke-linecap:butt;stroke-linejoin:miter;stroke-miterlimit:4;stroke-opacity:1;stroke-dasharray:none"
       d="m 1129.39,156.92978 c -0.2769,0.13853 -5.7509,0.47786 -16.4062,1.03125 -8.8567,0.55368 -13.4913,1.39308 -13.9063,2.5 5.9503,0.69206 9.0668,4.27737 9.3437,10.78125 0.415,7.47283 0.674,11.50909 0.8125,12.0625 l 0.4375,33.8125 -1.25,48.15625 c -1.6607,11.62423 -6.3756,19.6655 -14.125,24.09375 -5.5354,3.18283 -13.3668,4.78126 -23.4687,4.78125 -8.1647,1e-5 -14.5272,-0.83939 -19.0938,-2.5 -6.7808,-2.3525 -12.5137,-7.19691 -17.2187,-14.53125 -1.5223,-0.83027 -3.3797,-5.38447 -5.5938,-13.6875 -2.2142,-7.88781 -3.3438,-13.99131 -3.3437,-18.28125 l 0,-38.40625 c -1e-4,-0.41505 0.1607,-1.72327 0.4375,-3.9375 0.2767,-2.35242 0.4062,-3.66063 0.4062,-3.9375 l 0,-11.40625 c 0.076,-0.19669 0.4258,-5.3248 1.0313,-15.375 0.1383,-1.24532 0.4285,-3.26345 0.8437,-6.03125 0.4151,-2.76753 0.625,-4.28559 0.625,-4.5625 l 0,-2.28125 c -9.6869,1.93751 -19.456,3.24572 -29.28125,3.9375 l 0,1.65625 c 2.76765,1.24559 4.78575,4.15223 6.03125,8.71875 0.6919,2.35264 1.2902,6.09869 1.8438,11.21875 l -0.8125,60.40625 c -0.1384,4.98185 -0.2188,9.40656 -0.2188,13.28125 0,17.15957 2.8575,29.20585 8.5313,36.125 5.812,6.91917 16.6483,10.375 32.5625,10.375 l 6.6562,0 c 3.0444,0 8.8577,-0.96888 17.4375,-2.90625 7.611,-1.79898 12.5849,-3.1072 14.9375,-3.9375 5.2585,-2.07574 11.9915,-5.27261 20.1563,-9.5625 -2e-4,2.6293 -2e-4,5.32609 0,8.09375 -2e-4,3.73635 0.7589,5.88397 2.2812,6.4375 l 16.1876,-2.46875 c 1.1069,0.13839 2.5446,0.13839 4.3437,0 2.0756,-0.13838 3.0445,-0.21875 2.9063,-0.21875 3.5978,0 7.2635,-0.33933 11,-1.03125 -0.5537,-0.41515 -3.0407,-1.38403 -7.4688,-2.90625 -3.0446,-1.10706 -5.1922,-2.83497 -6.4375,-5.1875 -0.8304,-1.38382 -1.7189,-4.92001 -2.6875,-10.59375 -1.2456,-6.22722 -1.8751,-11.5717 -1.875,-16 -1e-4,-7.33427 0.2097,-18.38042 0.625,-33.1875 0.5534,-14.80694 0.8436,-25.9647 0.8438,-33.4375 l 4.125,-39.4375 c -2e-4,-0.27662 -0.3886,-0.82581 -1.2188,-1.65625 z"
       id="path3596" />
    <path
       style="fill:#000000;stroke:#000000;stroke-width:0.94609523;stroke-linecap:butt;stroke-linejoin:miter;stroke-miterlimit:4;stroke-opacity:1;stroke-dasharray:none"
       d="m 763.3587,157.77353 c -16.60603,1.10721 -29.20149,2.12521 -37.78125,3.09375 9.82521,4.29002 16.31717,9.84435 19.5,16.625 2.07573,4.42839 3.12498,11.25968 3.125,20.53125 l -1.4375,25.34375 0,11.625 c -2e-5,25.87774 -1.46897,43.99627 -4.375,54.375 -0.83032,2.76768 -2.6386,5.12514 -5.40625,7.0625 -4.15151,2.90605 -6.34824,4.50448 -6.625,4.78125 3.59796,0.8303 8.86207,1.21875 15.78125,1.21875 5.12016,0 11.48263,-0.75903 19.09375,-2.28125 10.3787,-2.21413 15.64281,-3.31249 15.78125,-3.3125 -4.98185,-0.83029 -8.67878,-1.24999 -11.03125,-1.25 -3.59801,1e-5 -7.10295,-0.96887 -10.5625,-2.90625 -1.1071,-0.69191 -1.9465,-1.7099 -2.5,-3.09375 -0.2768,-0.6919 -0.61613,-2.29033 -1.03125,-4.78125 -1.38386,-12.86962 -2.09378,-22.08962 -2.09375,-27.625 -0.83033,-26.70792 -0.74996,-48.9922 0.21875,-66.84375 8.71812,8.71826 23.72016,24.01051 45.03125,45.875 13.83825,14.25354 33.16677,33.58206 57.9375,57.9375 6.64226,6.50402 10.14721,9.75 10.5625,9.75 0.55339,0 0.97309,-0.12948 1.25,-0.40625 0.83016,-12.73126 1.66955,-25.48745 2.5,-38.21875 1.52207,-24.77057 2.2811,-38.88409 2.28125,-42.34375 l 0,-9.75 c -1.5e-4,-1.79889 1.4688,-17.64033 4.375,-47.53125 1.66045,-0.96855 5.03591,-2.01779 10.15625,-3.125 4.4281,-1.10693 7.25438,-2.12492 8.5,-3.09375 l -26.15625,-1.25 c -2.90619,1.4e-4 -8.00957,1.22799 -15.34375,3.71875 -6.50414,2.21427 -10.25019,3.68322 -11.21875,4.375 1.66048,1.4e-4 4.22779,-0.0802 7.6875,-0.21875 3.45946,-0.27663 5.18737,-0.40611 5.1875,-0.40625 1.66047,1.4e-4 2.54898,0.41984 2.6875,1.25 0.96855,9.68696 1.54898,16.93795 1.6875,21.78125 0.83016,14.80712 1.63831,30.05026 2.46875,45.6875 l 1.03125,31.96875 c -1.4e-4,1.1071 -0.20999,1.91525 -0.625,2.46875 -26.70811,-26.29278 -44.11672,-43.65229 -52.28125,-52.09375 -21.31111,-22.55638 -37.44276,-42.19298 -48.375,-58.9375 z"
       id="path3594" />
    <path
       style="fill:#000000;stroke:#000000;stroke-width:0.94609523;stroke-linecap:butt;stroke-linejoin:miter;stroke-miterlimit:4;stroke-opacity:1;stroke-dasharray:none"
       d="m 472.01495,158.17978 -15.375,1.4375 c 0.13836,1.4e-4 -1.58955,-0.12934 -5.1875,-0.40625 -3.4596,-0.27662 -6.28587,-0.35699 -8.5,-0.21875 -3.04444,1.4e-4 -4.85272,0.29036 -5.40625,0.84375 10.79389,3.73649 16.18748,13.21546 16.1875,28.4375 -2e-5,10.24047 -1.51808,28.22953 -4.5625,53.96875 -2.49091,20.75755 -4.21882,33.77271 -5.1875,39.03125 -0.83031,4.01314 -2.05815,8.14763 -3.71875,12.4375 -1.79899,4.70504 -3.05808,8.37072 -3.75,11 5.67371,-1.79898 12.58537,-2.6875 20.75,-2.6875 0.41513,0 2.85296,0.12948 7.28125,0.40625 4.56662,0.13838 6.9732,0.21875 7.25,0.21875 1.66056,0 2.62945,-0.54918 2.90625,-1.65625 -5.81213,-0.27676 -10.91551,-3.26378 -15.34375,-8.9375 -4.42829,-5.81209 -6.52678,-11.54501 -6.25,-17.21875 0.13837,-6.08884 0.13837,-9.2857 0,-9.5625 l 2.90625,-44 c -2e-5,-6.22717 1.04923,-17.51441 3.125,-33.84375 4.01309,6.50413 15.89864,28.3687 35.6875,65.59375 16.32917,30.72113 25.20983,46.09375 26.59375,46.09375 3.73626,0 13.47419,-16.60047 29.25,-49.8125 9.8251,-21.44935 19.72376,-42.89423 29.6875,-64.34375 l 2.6875,40.875 0.84375,72.25 c -0.27691,1.10707 -0.4064,1.94647 -0.40625,2.5 -1.5e-4,2.35252 2.9065,3.5 8.71875,3.5 l 24.90625,-1.03125 c 2.90587,0 4.76326,-0.25897 5.59375,-0.8125 -0.55372,-0.8303 -2.75045,-1.54021 -6.625,-2.09375 -3.73653,-0.69191 -5.96451,-2.46894 -6.65625,-5.375 -1.93754,-8.71814 -3.4556,-20.00538 -4.5625,-33.84375 -0.41532,-6.50397 -0.9645,-17.84033 -1.65625,-34.03125 l -0.21875,-48.375 c -1.7e-4,-0.41503 0.29005,-3.45115 0.84375,-9.125 0.2766,-3.73622 0.90615,-5.88383 1.875,-6.4375 1.66043,-1.10693 2.46858,-1.94633 2.46875,-2.5 -8.30317,0.55367 -17.70177,1.31271 -28.21875,2.28125 -3.04458,12.7314 -7.80862,26.50559 -14.3125,41.3125 -5.95061,13.70004 -11.92463,27.39387 -17.875,41.09375 -7.47281,17.29796 -12.15648,27.11626 -14.09375,29.46875 -8.16471,-12.31608 -18.22411,-29.67558 -30.125,-52.09375 -13.28486,-25.18567 -22.68346,-45.53218 -28.21875,-61.03125 -0.83034,-2.21399 -1.9287,-3.31236 -3.3125,-3.3125 z"
       id="path3592" />
    <path
       style="fill:#000000;stroke:#000000;stroke-width:0.94609523;stroke-linecap:butt;stroke-linejoin:miter;stroke-miterlimit:4;stroke-opacity:1;stroke-dasharray:none"
       d="m 1210.265,158.17978 -15.3438,1.4375 c 0.1384,1.4e-4 -1.5895,-0.12934 -5.1874,-0.40625 -3.4596,-0.27662 -6.2859,-0.35699 -8.5,-0.21875 -3.0445,1.4e-4 -4.8528,0.29036 -5.4063,0.84375 10.7939,3.73649 16.1875,13.21546 16.1875,28.4375 0,10.24047 -1.5181,28.22953 -4.5625,53.96875 -2.4909,20.75755 -4.2188,33.77271 -5.1875,39.03125 -0.8303,4.01314 -2.0894,8.14763 -3.75,12.4375 -1.799,4.70504 -3.0268,8.37072 -3.7188,11 5.6738,-1.79898 12.5854,-2.6875 20.75,-2.6875 0.4152,0 2.8218,0.12948 7.25,0.40625 4.5667,0.13838 7.0045,0.21875 7.2813,0.21875 1.6606,0 2.6294,-0.54918 2.9063,-1.65625 -5.8122,-0.27676 -10.9468,-3.26378 -15.375,-8.9375 -4.4283,-5.81209 -6.4956,-11.54501 -6.2188,-17.21875 0.1384,-6.08884 0.1384,-9.2857 0,-9.5625 l 2.9062,-44 c 0,-6.22717 1.0493,-17.51441 3.125,-33.84375 4.0131,6.50413 15.8987,28.3687 35.6876,65.59375 16.3291,30.72113 25.1785,46.09375 26.5624,46.09375 3.7363,0 13.5055,-16.60047 29.2813,-49.8125 9.8251,-21.44935 19.7238,-42.89423 29.6875,-64.34375 l 2.6875,40.875 0.8437,72.25 c -0.2769,1.10707 -0.4376,1.94647 -0.4374,2.5 -2e-4,2.35252 2.9064,3.5 8.7187,3.5 l 24.9063,-1.03125 c 2.9058,0 4.7945,-0.25897 5.625,-0.8125 -0.5538,-0.8303 -2.7817,-1.54021 -6.6563,-2.09375 -3.7365,-0.69191 -5.9333,-2.46894 -6.625,-5.375 -1.9375,-8.71814 -3.4556,-20.00538 -4.5625,-33.84375 -0.4153,-6.50397 -0.9958,-17.84033 -1.6875,-34.03125 l -0.1875,-48.375 c -2e-4,-0.41503 0.2588,-3.45115 0.8125,-9.125 0.2766,-3.73622 0.9061,-5.88383 1.875,-6.4375 1.6604,-1.10693 2.4998,-1.94633 2.5,-2.5 -8.3032,0.55367 -17.733,1.31271 -28.25,2.28125 -3.0446,12.7314 -7.8086,26.50559 -14.3125,41.3125 -5.9506,13.70004 -11.8934,27.39387 -17.8438,41.09375 -7.4728,17.29796 -12.1877,27.11626 -14.125,29.46875 -8.1647,-12.31608 -18.1928,-29.67558 -30.0937,-52.09375 -13.2849,-25.18567 -22.6835,-45.53218 -28.2187,-61.03125 -0.8304,-2.21399 -1.96,-3.31236 -3.3438,-3.3125 z"
       id="rect2847-8" />
    <rect
       style="fill:none;stroke:#630000;stroke-width:5;stroke-linecap:butt;stroke-linejoin:miter;stroke-miterlimit:4;stroke-opacity:1;stroke-dasharray:none;fill-opacity:1"
       id="rect2847"
       width="1277.0599"
       height="234.6429"
       x="98.609383"
       y="97.055466" />
  </g>
</svg>
